<svg width="120" height="56" viewBox="0 0 120 56" fill="none" xmlns="http://www.w3.org/2000/svg">
<g filter="url(#filter0_dd_359_5945)">
<path d="M17.8708 12.677H18.8508C19.6278 12.677 20.3731 12.9857 20.9226 13.5352C21.4721 14.0847 21.7808 14.8299 21.7808 15.607C21.7808 21.307 21.7618 27.017 21.7808 32.722C21.7808 32.791 21.7808 32.86 21.7808 32.93C21.7808 33.317 21.8388 33.7 21.8538 34.086C21.8138 33.003 21.8888 34.164 21.9708 34.498C22.0595 34.8604 22.1674 35.2179 22.2938 35.569C22.3118 35.62 22.3458 35.691 22.3768 35.764L22.4448 35.911C22.6158 36.254 22.8048 36.5878 23.0108 36.911C23.0948 37.043 23.1818 37.173 23.2718 37.301L23.2808 37.312L24.7348 38.766C24.8688 38.858 25.0018 38.951 25.1348 39.038C25.4443 39.2356 25.7637 39.4171 26.0918 39.582C26.2038 39.639 26.3638 39.687 26.4798 39.756C26.8304 39.8818 27.1872 39.9896 27.5488 40.079C27.8828 40.161 29.0438 40.236 27.9598 40.196C28.3818 40.212 28.7998 40.266 29.2228 40.27C29.5048 40.27 29.7868 40.259 30.0688 40.237C30.1368 40.231 30.2498 40.209 30.3508 40.198H30.3668C30.6781 40.1373 30.9861 40.0633 31.2908 39.976C31.4808 39.921 31.6908 39.826 31.8908 39.746C31.8518 39.784 31.9308 39.795 32.0828 39.717L32.2558 39.631C32.2858 39.625 32.3158 39.618 32.3458 39.614L32.2658 39.626C32.3848 39.568 32.5028 39.509 32.6198 39.446C32.8864 39.304 33.1441 39.151 33.3928 38.987C33.4728 38.935 33.5508 38.881 33.6278 38.827L33.5888 38.879C33.6028 38.86 33.6198 38.841 33.6358 38.822L33.8048 38.705C33.9608 38.605 33.9758 38.526 33.9048 38.562C34.1048 38.397 34.3228 38.24 34.4818 38.081C34.6738 37.888 34.8588 37.689 35.0358 37.481C35.0938 37.397 35.1768 37.304 35.2168 37.246C35.4068 36.9713 35.5834 36.689 35.7468 36.399C35.8683 36.1084 36.0069 35.8252 36.1618 35.551C36.2048 35.43 36.2468 35.309 36.2858 35.187C36.3858 34.862 36.4768 34.532 36.5488 34.2C36.5738 34.084 36.5948 33.968 36.6168 33.851C36.6428 33.509 36.6668 33.169 36.6698 32.826C36.6828 31.197 36.6698 29.567 36.6698 27.937V15.607C36.6698 14.8299 36.9785 14.0847 37.5279 13.5352C38.0774 12.9857 38.8227 12.677 39.5998 12.677H40.5798C41.3568 12.677 42.1021 12.9857 42.6516 13.5352C43.2011 14.0847 43.5098 14.8299 43.5098 15.607V16.366C43.5098 21.851 43.5568 27.338 43.5098 32.823C43.4621 36.597 41.9423 40.2032 39.2742 42.8728C36.6061 45.5424 33.0008 47.0643 29.2268 47.114C29.1648 47.114 29.1028 47.114 29.0418 47.108C22.4198 46.955 16.2738 42.077 15.1918 35.408C14.9275 33.1801 14.8433 30.9345 14.9398 28.693V15.607C14.9398 15.2222 15.0156 14.8411 15.1629 14.4855C15.3102 14.13 15.5261 13.8069 15.7983 13.5348C16.0705 13.2627 16.3936 13.0469 16.7492 12.8997C17.1048 12.7526 17.4859 12.6769 17.8708 12.677Z" fill="#B9B9B9"/>
<path d="M29.6629 34.433H28.6828C27.9058 34.433 27.1605 34.1243 26.611 33.5748C26.0616 33.0253 25.7529 32.2801 25.7529 31.503C25.7529 25.798 25.7709 20.092 25.7529 14.388C25.7529 14.318 25.7529 14.249 25.7529 14.18C25.7529 13.792 25.6949 13.409 25.6799 13.023C25.7199 14.107 25.6449 12.946 25.5629 12.612C25.4738 12.2493 25.366 11.8915 25.2399 11.54C25.2219 11.49 25.1868 11.418 25.1568 11.345L25.0889 11.199C24.9182 10.8558 24.7292 10.522 24.5228 10.199C24.4388 10.067 24.3519 9.93701 24.2619 9.80901L24.2529 9.798L22.7988 8.34401C22.6648 8.25301 22.5328 8.15901 22.3988 8.07201C22.0892 7.87462 21.7698 7.69305 21.4418 7.528C21.3288 7.471 21.1698 7.428 21.0538 7.354C20.7029 7.22864 20.3457 7.12117 19.9838 7.032C19.6508 6.95 18.4899 6.87501 19.5729 6.91501C19.1509 6.89901 18.7329 6.84501 18.3109 6.84201C18.0289 6.84201 17.7459 6.853 17.4649 6.875C17.3969 6.875 17.2838 6.90301 17.1828 6.91301H17.1658C16.8545 6.97368 16.5465 7.048 16.2419 7.136C16.0519 7.19 15.8419 7.28501 15.6419 7.36601C15.6809 7.32801 15.6018 7.317 15.4498 7.395C15.3918 7.425 15.3348 7.45301 15.2768 7.48201C15.2468 7.48801 15.2168 7.495 15.1868 7.498L15.2669 7.48601C15.1479 7.54501 15.0299 7.603 14.9129 7.666C14.6489 7.808 14.3908 7.96601 14.1398 8.12601C14.0598 8.17801 13.9819 8.231 13.9049 8.285L13.9448 8.23401C13.9308 8.25301 13.9139 8.272 13.8969 8.291C13.8409 8.33 13.7849 8.369 13.7279 8.407C13.5719 8.507 13.5569 8.587 13.6279 8.55C13.4279 8.716 13.2099 8.87201 13.0509 9.03101C12.8582 9.22301 12.6732 9.42301 12.4959 9.63101C12.4379 9.71601 12.3549 9.80801 12.3149 9.86601C12.1255 10.1393 11.9489 10.4217 11.7849 10.713C11.6635 11.0037 11.5249 11.2868 11.3699 11.561C11.3265 11.6817 11.2852 11.8033 11.2459 11.926C11.1459 12.25 11.0558 12.58 10.9838 12.913C10.9578 13.029 10.9378 13.146 10.9148 13.262C10.8898 13.604 10.8659 13.944 10.8629 14.288C10.8489 15.917 10.8629 17.547 10.8629 19.177V31.505C10.8626 32.2822 10.5537 33.0274 10.004 33.5769C9.4544 34.1263 8.70905 34.435 7.93187 34.435H6.95287C6.17569 34.435 5.43033 34.1263 4.88069 33.5769C4.33105 33.0274 4.02213 32.2822 4.02187 31.505V30.745C4.02187 25.261 3.97487 19.773 4.02187 14.289C4.07028 10.5156 5.59029 6.91023 8.25807 4.24115C10.9258 1.57207 14.5305 0.0502631 18.3038 0C18.3648 0 18.4269 1.19628e-05 18.4879 0.00601196C25.1099 0.159012 31.2558 5.03701 32.3378 11.706C32.602 13.9336 32.6863 16.1789 32.5899 18.42V31.506C32.5888 32.282 32.2801 33.0258 31.7314 33.5745C31.1827 34.1232 30.4388 34.4319 29.6629 34.433Z" fill="#E3E3E3"/>
<path d="M54.251 18.9991V30.2791H52.795V18.9991H54.251ZM66.0958 24.6311C66.0958 25.7724 65.8665 26.7697 65.4078 27.6231C64.9492 28.4657 64.2718 29.1217 63.3758 29.5911C62.4905 30.0497 61.4238 30.2791 60.1758 30.2791H56.5918V18.9991H60.1758C61.4238 18.9991 62.4905 19.2284 63.3758 19.6871C64.2718 20.1351 64.9492 20.7857 65.4078 21.6391C65.8665 22.4817 66.0958 23.4791 66.0958 24.6311ZM60.0638 28.9671C61.5358 28.9671 62.6612 28.5884 63.4398 27.8311C64.2185 27.0737 64.6078 26.0071 64.6078 24.6311C64.6078 23.2551 64.2185 22.1884 63.4398 21.4311C62.6718 20.6631 61.5465 20.2791 60.0638 20.2791H58.0478V28.9671H60.0638ZM69.5166 20.1831V24.0391H73.8046V25.1591H69.5166V29.0951H74.2846V30.2791H68.0606V18.9991H74.2846V20.1831H69.5166ZM84.9223 30.2791H83.4663L77.6103 21.3671V30.2791H76.1543V18.9991H77.6103L83.4663 27.9271V18.9991H84.9223V30.2791ZM94.1757 18.9991V20.1831H90.9917V30.2791H89.5357V20.1831H86.3517V18.9991H94.1757ZM97.0791 18.9991V30.2791H95.6231V18.9991H97.0791ZM106.332 18.9991V20.1831H103.148V30.2791H101.692V20.1831H98.508V18.9991H106.332ZM115.795 18.9991L112.099 26.0071V30.2791H110.627V26.0071L106.915 18.9991H108.611L111.379 24.4551L114.131 18.9991H115.795Z" fill="#B9B9B9"/>
<path d="M72.358 38.271C72.358 38.5137 72.2996 38.74 72.183 38.95C72.0663 39.1554 71.889 39.321 71.651 39.447C71.413 39.573 71.1213 39.636 70.776 39.636C70.44 39.636 70.139 39.5777 69.873 39.461C69.607 39.3397 69.3946 39.1717 69.236 38.957C69.0773 38.7424 68.9863 38.495 68.963 38.215H69.817C69.8403 38.4297 69.9313 38.614 70.09 38.768C70.2533 38.922 70.4703 38.999 70.741 38.999C70.9836 38.999 71.1703 38.9337 71.301 38.803C71.4363 38.6724 71.504 38.5044 71.504 38.299C71.504 38.1217 71.455 37.977 71.357 37.865C71.259 37.7484 71.1376 37.6574 70.993 37.592C70.8483 37.5267 70.65 37.452 70.398 37.368C70.09 37.27 69.838 37.172 69.642 37.074C69.4506 36.976 69.2873 36.8337 69.152 36.647C69.0166 36.4604 68.949 36.2154 68.949 35.912C68.949 35.646 69.0143 35.4127 69.145 35.212C69.2756 35.0114 69.4623 34.8574 69.705 34.75C69.9476 34.638 70.2276 34.582 70.545 34.582C71.049 34.582 71.448 34.7034 71.742 34.946C72.0406 35.1887 72.211 35.506 72.253 35.898H71.392C71.3593 35.7114 71.2706 35.5527 71.126 35.422C70.986 35.2867 70.7923 35.219 70.545 35.219C70.321 35.219 70.1413 35.2774 70.006 35.394C69.8706 35.506 69.803 35.6694 69.803 35.884C69.803 36.052 69.8496 36.192 69.943 36.304C70.0363 36.4114 70.153 36.4977 70.293 36.563C70.4376 36.6237 70.6336 36.696 70.881 36.78C71.1936 36.878 71.448 36.9784 71.644 37.081C71.8446 37.179 72.0126 37.3237 72.148 37.515C72.288 37.7064 72.358 37.9584 72.358 38.271ZM73.9548 38.964H75.6628V39.587H73.1568V34.645H73.9548V38.964ZM78.5767 34.582C79.034 34.582 79.447 34.6894 79.8157 34.904C80.189 35.1187 80.4807 35.4197 80.6907 35.807C80.9054 36.1897 81.0127 36.6237 81.0127 37.109C81.0127 37.5944 80.9054 38.0307 80.6907 38.418C80.4807 38.8007 80.189 39.1017 79.8157 39.321C79.447 39.5357 79.034 39.643 78.5767 39.643C78.1147 39.643 77.697 39.5357 77.3237 39.321C76.955 39.1017 76.6634 38.8007 76.4487 38.418C76.234 38.0307 76.1267 37.5944 76.1267 37.109C76.1267 36.6237 76.234 36.1897 76.4487 35.807C76.6634 35.4197 76.955 35.1187 77.3237 34.904C77.697 34.6894 78.1147 34.582 78.5767 34.582ZM78.5767 35.324C78.2594 35.324 77.977 35.3964 77.7297 35.541C77.4824 35.6857 77.2887 35.8934 77.1487 36.164C77.0134 36.4347 76.9457 36.7497 76.9457 37.109C76.9457 37.4684 77.0134 37.7834 77.1487 38.054C77.2887 38.3247 77.4824 38.5324 77.7297 38.677C77.977 38.8217 78.2594 38.894 78.5767 38.894C78.8894 38.894 79.167 38.8217 79.4097 38.677C79.657 38.5324 79.8484 38.3247 79.9837 38.054C80.1237 37.7834 80.1937 37.4684 80.1937 37.109C80.1937 36.7497 80.1237 36.4347 79.9837 36.164C79.8484 35.8934 79.657 35.6857 79.4097 35.541C79.167 35.3964 78.8894 35.324 78.5767 35.324ZM84.079 34.603C84.667 34.603 85.157 34.7477 85.549 35.037C85.941 35.3264 86.2 35.7207 86.326 36.22H85.486C85.3786 35.954 85.2013 35.7417 84.954 35.583C84.7113 35.4244 84.422 35.345 84.086 35.345C83.778 35.345 83.5003 35.4174 83.253 35.562C83.0103 35.7067 82.819 35.912 82.679 36.178C82.5436 36.444 82.476 36.7567 82.476 37.116C82.476 37.494 82.546 37.8184 82.686 38.089C82.826 38.3597 83.022 38.5674 83.274 38.712C83.5306 38.852 83.827 38.922 84.163 38.922C84.5736 38.922 84.926 38.796 85.22 38.544C85.514 38.2874 85.6913 37.9374 85.752 37.494H83.939V36.906H86.424V37.669C86.368 38.033 86.2373 38.3644 86.032 38.663C85.8313 38.957 85.563 39.1927 85.227 39.37C84.8956 39.5474 84.5153 39.636 84.086 39.636C83.6053 39.636 83.1806 39.5287 82.812 39.314C82.4433 39.0994 82.1586 38.803 81.958 38.425C81.7573 38.0424 81.657 37.606 81.657 37.116C81.657 36.626 81.7573 36.192 81.958 35.814C82.1586 35.4314 82.441 35.135 82.805 34.925C83.1736 34.7104 83.5983 34.603 84.079 34.603ZM90.179 38.516H88.093L87.715 39.587H86.861L88.681 34.722H89.598L91.411 39.587H90.557L90.179 38.516ZM89.955 37.9L89.136 35.59L88.317 37.9H89.955ZM96.0005 39.587H95.2025L92.8015 35.94V39.587H92.0035V34.652H92.8015L95.2025 38.313V34.652H96.0005V39.587ZM102.534 34.645V39.587H101.729V37.368H99.405V39.587H98.607V34.645H99.405V36.717H101.729V34.645H102.534ZM104.3 35.289V36.787H106.12V37.403H104.3V38.936H106.33V39.587H103.502V34.645H106.33V35.289H104.3ZM109.701 39.587L108.469 37.613H107.902V39.587H107.104V34.645H108.847C109.412 34.645 109.839 34.7827 110.128 35.058C110.422 35.3334 110.569 35.6974 110.569 36.15C110.569 36.5374 110.459 36.8547 110.24 37.102C110.025 37.3494 109.713 37.508 109.302 37.578L110.597 39.587H109.701ZM107.902 37.046H108.784C109.428 37.046 109.75 36.7614 109.75 36.192C109.75 35.9214 109.671 35.7114 109.512 35.562C109.358 35.408 109.115 35.331 108.784 35.331H107.902V37.046ZM112.086 35.289V36.787H113.906V37.403H112.086V38.936H114.116V39.587H111.288V34.645H114.116V35.289H112.086Z" fill="#B9B9B9"/>
</g>
<defs>
<filter id="filter0_dd_359_5945" x="0.000976562" y="0" width="119.794" height="55.114" filterUnits="userSpaceOnUse" color-interpolation-filters="sRGB">
<feFlood flood-opacity="0" result="BackgroundImageFix"/>
<feColorMatrix in="SourceAlpha" type="matrix" values="0 0 0 0 0 0 0 0 0 0 0 0 0 0 0 0 0 0 127 0" result="hardAlpha"/>
<feOffset dy="4"/>
<feGaussianBlur stdDeviation="2"/>
<feComposite in2="hardAlpha" operator="out"/>
<feColorMatrix type="matrix" values="0 0 0 0 0 0 0 0 0 0 0 0 0 0 0 0 0 0 0.25 0"/>
<feBlend mode="normal" in2="BackgroundImageFix" result="effect1_dropShadow_359_5945"/>
<feColorMatrix in="SourceAlpha" type="matrix" values="0 0 0 0 0 0 0 0 0 0 0 0 0 0 0 0 0 0 127 0" result="hardAlpha"/>
<feOffset dy="4"/>
<feGaussianBlur stdDeviation="2"/>
<feComposite in2="hardAlpha" operator="out"/>
<feColorMatrix type="matrix" values="0 0 0 0 0 0 0 0 0 0 0 0 0 0 0 0 0 0 0.25 0"/>
<feBlend mode="normal" in2="effect1_dropShadow_359_5945" result="effect2_dropShadow_359_5945"/>
<feBlend mode="normal" in="SourceGraphic" in2="effect2_dropShadow_359_5945" result="shape"/>
</filter>
</defs>
</svg>
